<?xml version="1.0" standalone="no"?>
<!DOCTYPE svg PUBLIC "-//W3C//DTD SVG 20010904//EN"
 "http://www.w3.org/TR/2001/REC-SVG-20010904/DTD/svg10.dtd">
<svg version="1.0" xmlns="http://www.w3.org/2000/svg"
 width="700.000000pt" height="700.000000pt" viewBox="0 0 700.000000 700.000000"
 preserveAspectRatio="xMidYMid meet">
<metadata>
Created by potrace 1.14, written by Peter Selinger 2001-2017
</metadata>
<g transform="translate(0.000000,700.000000) scale(0.100000,-0.100000)"
fill="#000000" stroke="none">
<path d="M395 6981 c-181 -52 -305 -167 -367 -341 l-23 -65 -2 -1230 c-3
-1317 -4 -1284 46 -1395 27 -60 50 -92 102 -147 70 -74 138 -113 249 -143 61
-17 147 -18 1270 -19 831 0 1222 3 1260 10 185 37 336 168 402 350 l23 64 2
1230 c3 1310 3 1292 -44 1394 -70 150 -188 247 -364 299 -13 3 -580 8 -1259 9
-1148 1 -1239 0 -1295 -16z"/>
<path d="M4035 6981 c-33 -10 -73 -25 -90 -32 -140 -65 -251 -202 -292 -356
-4 -15 -8 -579 -9 -1253 -2 -997 0 -1237 11 -1287 38 -173 177 -325 355 -388
53 -19 96 -20 1286 -22 1363 -2 1294 -5 1425 63 83 44 182 145 221 226 61 124
59 72 56 1415 l-3 1228 -23 65 c-56 156 -171 272 -325 329 l-72 26 -1240 2
c-1167 2 -1244 1 -1300 -16z"/>
<path d="M406 3344 c-171 -40 -317 -173 -378 -344 l-23 -65 0 -1255 0 -1255
23 -65 c30 -84 70 -145 135 -209 56 -55 74 -67 147 -101 108 -51 76 -50 1395
-47 l1230 2 65 23 c173 62 304 207 344 383 22 93 22 2444 1 2535 -47 203 -202
356 -403 399 -94 20 -2450 19 -2536 -1z"/>
<path d="M4053 3344 c-171 -35 -322 -171 -385 -345 l-23 -64 0 -1255 0 -1255
23 -65 c49 -136 156 -255 279 -310 117 -52 66 -50 1388 -47 677 1 1243 6 1259
10 193 52 340 200 393 394 4 15 9 582 10 1258 3 1220 3 1231 -18 1303 -54 192
-208 338 -396 377 -97 20 -2435 19 -2530 -1z"/>
</g>
</svg>
