<?xml version="1.0" standalone="no"?>
<!DOCTYPE svg PUBLIC "-//W3C//DTD SVG 20010904//EN"
 "http://www.w3.org/TR/2001/REC-SVG-20010904/DTD/svg10.dtd">
<svg version="1.0" xmlns="http://www.w3.org/2000/svg"
 width="512.000000pt" height="512.000000pt" viewBox="0 0 512.000000 512.000000"
 preserveAspectRatio="xMidYMid meet">

<g transform="translate(0.000000,512.000000) scale(0.100000,-0.100000)"
fill="#000000" stroke="none">
<path d="M4106 4704 c-22 -8 -54 -25 -72 -39 -64 -49 -73 -76 -130 -393 -30
-163 -54 -317 -54 -342 0 -60 40 -140 87 -176 44 -33 241 -104 290 -104 62 0
114 22 163 70 27 25 115 149 204 286 179 276 191 306 163 405 -32 108 -69 133
-394 255 -149 57 -190 63 -257 38z m262 -256 c107 -42 187 -79 192 -89 10 -17
5 -25 -243 -406 -37 -57 -72 -103 -79 -103 -27 1 -173 58 -181 71 -5 9 10 120
41 292 45 248 60 307 80 307 3 0 89 -32 190 -72z"/>
<path d="M3265 4457 c-126 -38 -144 -46 -182 -83 -47 -48 -68 -105 -60 -170 4
-41 163 -353 215 -423 36 -49 102 -75 171 -68 84 8 170 44 213 88 59 61 63 93
43 314 -19 213 -25 248 -57 296 -28 42 -118 89 -167 88 -20 0 -99 -19 -176
-42z m194 -312 c7 -77 14 -155 18 -172 4 -28 2 -34 -18 -42 -70 -26 -60 -34
-149 131 -45 84 -82 157 -83 162 -2 11 205 75 214 67 4 -3 12 -69 18 -146z"/>
<path d="M285 3696 c-115 -36 -198 -108 -248 -214 l-32 -67 0 -810 0 -810 31
-65 c53 -111 159 -197 271 -220 55 -12 39 -13 1333 60 289 16 768 43 1065 60
1764 99 2099 119 2130 128 109 33 216 128 257 230 l23 57 0 555 0 555 -31 65
c-57 120 -165 201 -296 221 -63 10 -2838 179 -2934 179 -41 0 -56 -5 -76 -25
-50 -50 -39 -133 23 -162 15 -7 597 -46 1504 -101 1214 -73 1486 -92 1512
-105 42 -22 80 -70 93 -117 7 -26 10 -209 8 -538 l-3 -498 -28 -42 c-53 -82
-32 -78 -724 -117 -3428 -194 -3794 -213 -3830 -203 -49 13 -108 73 -122 123
-7 28 -11 270 -11 780 0 696 2 742 19 780 10 23 32 53 49 67 58 49 79 51 348
34 352 -23 389 -22 419 9 35 34 35 106 1 140 -30 30 -39 31 -351 50 -305 18
-347 18 -400 1z"/>
<path d="M1342 3625 c-77 -65 -33 -175 68 -175 93 0 122 142 39 186 -41 21
-74 17 -107 -11z"/>
<path d="M992 2965 c-54 -45 -46 -77 48 -211 44 -63 83 -120 86 -127 2 -7 -36
-70 -86 -140 -49 -70 -94 -136 -100 -147 -42 -79 46 -165 117 -115 12 9 57 65
99 125 43 61 81 110 85 110 3 0 41 -49 83 -110 42 -60 87 -116 99 -125 54 -38
127 2 127 71 0 30 -17 60 -96 171 -53 75 -98 141 -100 147 -2 6 34 65 81 131
70 99 85 127 85 158 0 60 -55 100 -112 78 -15 -6 -53 -48 -93 -105 -38 -53
-71 -96 -75 -96 -4 0 -34 40 -68 88 -70 101 -78 110 -119 118 -23 4 -36 0 -61
-21z"/>
<path d="M1923 2970 c-18 -11 -33 -21 -33 -23 0 -2 -54 -145 -120 -318 -66
-173 -120 -324 -120 -337 0 -32 52 -82 85 -82 44 0 73 28 96 91 l22 59 122 0
122 0 22 -60 c23 -62 54 -90 101 -90 29 0 80 53 80 82 0 21 -215 601 -240 648
-12 22 -60 50 -87 50 -10 0 -33 -9 -50 -20z m81 -364 c14 -37 26 -70 26 -72 0
-2 -25 -4 -56 -4 -31 0 -54 4 -52 8 2 4 14 38 27 75 14 37 26 66 27 64 1 -1
14 -33 28 -71z"/>
<path d="M2565 2981 c-51 -22 -57 -41 -116 -368 -37 -204 -55 -323 -49 -337
25 -67 123 -79 154 -18 7 15 24 87 37 160 12 73 26 129 30 125 4 -5 24 -64 44
-133 44 -149 55 -172 90 -188 44 -20 75 -14 109 21 27 27 38 55 71 174 21 79
40 141 42 139 2 -2 15 -61 28 -132 34 -176 32 -172 61 -190 58 -39 134 -2 134
65 0 67 -110 615 -129 641 -39 54 -107 62 -149 17 -11 -12 -34 -71 -52 -132
-17 -60 -41 -141 -52 -180 l-20 -70 -53 179 c-56 190 -74 221 -130 231 -16 2
-39 1 -50 -4z"/>
<path d="M3349 2961 l-29 -29 0 -332 c0 -193 4 -339 10 -349 13 -25 64 -45 95
-37 53 14 65 40 65 152 l0 101 58 7 c191 22 300 222 208 381 -57 96 -140 135
-289 135 -85 0 -90 -1 -118 -29z m238 -173 c53 -49 15 -138 -59 -138 l-38 0 0
80 0 80 37 0 c24 0 45 -8 60 -22z"/>
<path d="M3950 2977 c-48 -24 -50 -40 -50 -385 l0 -324 29 -29 c29 -28 32 -29
131 -29 138 0 170 17 170 91 0 48 -39 79 -100 79 l-50 0 0 259 c0 281 -5 313
-51 336 -34 18 -47 18 -79 2z"/>
<path d="M469 2967 c-37 -28 -39 -50 -39 -367 0 -337 2 -354 55 -378 15 -7 73
-12 141 -12 153 0 184 15 184 91 0 65 -39 89 -141 89 l-59 0 0 60 0 60 54 0
c72 0 102 12 121 50 13 26 14 37 4 67 -14 43 -55 63 -129 63 l-50 0 0 59 0 59
81 4 c70 3 83 6 100 27 27 33 25 92 -4 119 -22 20 -33 22 -163 22 -93 -1 -144
-5 -155 -13z"/>
<path d="M4382 2957 c-22 -23 -22 -28 -22 -359 l0 -336 31 -26 c29 -25 37 -26
140 -26 125 0 159 11 179 60 10 24 10 36 0 60 -17 41 -57 60 -125 60 l-55 0 0
59 0 59 60 4 c66 5 95 23 105 68 14 63 -40 110 -126 110 l-39 0 0 60 0 60 63
0 c69 0 102 16 118 57 12 32 -5 89 -31 103 -10 6 -77 10 -148 10 -121 0 -130
-1 -150 -23z"/>
<path d="M2042 1372 c-120 -52 -172 -116 -172 -213 0 -57 83 -426 105 -470 35
-67 130 -116 210 -107 40 5 249 92 313 130 36 22 76 85 87 136 16 77 0 114
-122 285 -132 184 -174 234 -220 253 -52 22 -130 17 -201 -14z m238 -331 c62
-84 108 -156 103 -160 -12 -11 -224 -103 -228 -99 -4 4 -85 356 -85 368 0 12
71 50 87 47 6 -1 62 -71 123 -156z"/>
<path d="M1238 1376 c-53 -19 -83 -40 -111 -78 -13 -18 -76 -144 -140 -280
-110 -232 -117 -251 -117 -309 0 -76 34 -145 92 -185 54 -38 412 -127 480
-120 90 9 176 77 198 156 5 19 15 162 21 318 14 321 12 338 -52 407 -46 50
-63 58 -186 85 -107 23 -134 24 -185 6z m172 -211 l55 -11 -2 -105 c-4 -254
-15 -438 -27 -442 -7 -3 -91 14 -186 37 -130 31 -176 46 -178 58 -3 15 181
416 214 466 12 18 20 21 42 15 15 -3 52 -12 82 -18z"/>
</g>
</svg>
